<svg width="256" height="256" viewBox="0 0 256 256" xmlns="http://www.w3.org/2000/svg" role="img" aria-labelledby="title">
  <title>BetterNotePad Logo</title>
  <defs>
    <linearGradient id="bgGradient" x1="0%" y1="0%" x2="100%" y2="100%">
      <stop offset="0%" style="stop-color:#4f46e5;stop-opacity:1" />
      <stop offset="100%" style="stop-color:#7c3aed;stop-opacity:1" />
    </linearGradient>
    <linearGradient id="paperGradient" x1="0%" y1="0%" x2="0%" y2="100%">
      <stop offset="0%" style="stop-color:#ffffff;stop-opacity:1" />
      <stop offset="100%" style="stop-color:#f3f4f6;stop-opacity:1" />
    </linearGradient>
    <filter id="shadow">
      <feDropShadow dx="0" dy="4" stdDeviation="8" flood-opacity="0.3"/>
    </filter>
  </defs>

  <!-- Background Circle -->
  <circle cx="128" cy="128" r="120" fill="url(#bgGradient)"/>

  <!-- Notepad Paper -->
  <g filter="url(#shadow)">
    <rect x="70" y="50" width="116" height="156" rx="8" fill="url(#paperGradient)" stroke="#e5e7eb" stroke-width="2"/>

    <!-- Red margin line -->
    <line x1="90" y1="60" x2="90" y2="196" stroke="#ef4444" stroke-width="2"/>

    <!-- Text lines -->
    <line x1="100" y1="80" x2="165" y2="80" stroke="#6366f1" stroke-width="3" stroke-linecap="round"/>
    <line x1="100" y1="100" x2="170" y2="100" stroke="#8b5cf6" stroke-width="3" stroke-linecap="round"/>
    <line x1="100" y1="120" x2="155" y2="120" stroke="#6366f1" stroke-width="3" stroke-linecap="round"/>
    <line x1="100" y1="140" x2="168" y2="140" stroke="#8b5cf6" stroke-width="3" stroke-linecap="round"/>
    <line x1="100" y1="160" x2="150" y2="160" stroke="#6366f1" stroke-width="3" stroke-linecap="round"/>
    <line x1="100" y1="180" x2="165" y2="180" stroke="#8b5cf6" stroke-width="3" stroke-linecap="round"/>
  </g>

  <!-- Pen/Pencil -->
  <g transform="translate(155, 165) rotate(-45)">
    <!-- Pen body -->
    <rect x="0" y="0" width="50" height="12" rx="2" fill="#fbbf24"/>
    <rect x="0" y="0" width="15" height="12" rx="2" fill="#f59e0b"/>

    <!-- Pen tip -->
    <polygon points="50,0 60,6 50,12" fill="#78716c"/>
    <polygon points="60,6 65,6 62.5,3 62.5,9" fill="#292524"/>

    <!-- Pen clip -->
    <rect x="12" y="-2" width="2" height="6" rx="1" fill="#94a3b8"/>
  </g>

  <!-- Plus sign accent (representing "Better") -->
  <circle cx="196" cy="60" r="20" fill="#10b981" stroke="#ffffff" stroke-width="3"/>
  <line x1="196" y1="52" x2="196" y2="68" stroke="#ffffff" stroke-width="4" stroke-linecap="round"/>
  <line x1="188" y1="60" x2="204" y2="60" stroke="#ffffff" stroke-width="4" stroke-linecap="round"/>
</svg>